<?xml version="1.0" standalone="no"?>
<!DOCTYPE svg PUBLIC "-//W3C//DTD SVG 1.1//EN" "http://www.w3.org/Graphics/SVG/1.1/DTD/svg11.dtd" >
<svg>
<metadata>
Created by FontForge 20110222 at Fri May 16 09:43:12 2014
 By deploy user
Typeface (c) (your company). 2007. All Rights Reserved
</metadata>
<defs>
<font id="Brianne'shand" horiz-adv-x="1014" >
  <font-face 
    font-family="Brianne's hand"
    font-weight="400"
    font-stretch="normal"
    units-per-em="2048"
    panose-1="2 0 5 0 0 0 0 0 0 0"
    ascent="1638"
    descent="-410"
    x-height="847"
    cap-height="1401"
    bbox="-8 -428 1360 1786"
    underline-thickness="150"
    underline-position="-142"
    unicode-range="U+0020-2212"
  />
<missing-glyph horiz-adv-x="0" 
 />
    <glyph glyph-name=".notdef" horiz-adv-x="0" 
 />
    <glyph glyph-name="nonmarkingreturn" horiz-adv-x="508" 
 />
    <glyph glyph-name="space" unicode=" " horiz-adv-x="508" 
 />
    <glyph glyph-name="space" unicode="&#xa0;" horiz-adv-x="508" 
 />
    <glyph glyph-name="exclam" unicode="!" horiz-adv-x="511" 
d="M224 1406q156 -24 156 -177v-218l12 -68l-12 -82v-354l-24 -41l12 -13q-76 -68 -144 -82q-84 140 -84 327h12l-12 13v96l12 13l-12 14l12 136v164l-12 68h12l-12 13v96q0 95 84 95zM268 258q93 0 156 -132v-12q-34 -96 -108 -96q-180 29 -180 144q41 96 132 96z" />
    <glyph glyph-name="quotedbl" unicode="&#x22;" horiz-adv-x="672" 
d="M468 1477v-12l12 12h12q156 -80 156 -156l-12 -12v-12l12 -12q0 -198 -192 -264q-108 0 -108 84q72 134 72 192l-36 96q30 84 84 84zM157 1472v-12l12 12h12q156 -80 156 -156l-12 -12v-12l12 -12q0 -198 -192 -264q-108 0 -108 84q72 134 72 192l-36 96q30 84 84 84z
" />
    <glyph glyph-name="numbersign" unicode="#" horiz-adv-x="1379" 
d="M892 1336q52 0 96 -144l-12 -60v-60q384 -24 384 -84v-60q0 -45 -276 -72l-12 12h-12l-12 -12h-12l-60 12l-24 -72q168 -57 168 -96v-12q-180 -70 -180 -120q0 -252 -120 -252l-12 -12q-96 39 -96 108l24 192l-24 24l-12 -12h-156q-20 -204 -120 -204h-48q-48 0 -72 168
l-204 -24q-85 0 -108 120q0 84 252 120l12 12l12 -12l96 24v12l-108 12l-12 -12h-60q-120 16 -120 120q0 83 336 108q36 240 144 240q84 -65 84 -180v-48h36l48 12l36 -12q33 252 108 252zM616 856v-24h132v24h-132z" />
    <glyph glyph-name="percent" unicode="%" horiz-adv-x="1388" 
d="M935 1585h48q50 -32 84 -108v-48l-12 -12l12 -12v-12q-264 -868 -456 -1344q-99 -204 -168 -204l-72 12l12 36l-12 48q0 73 108 384h12l-12 12v12l180 528q-67 -60 -144 -60q-208 0 -240 276v48q48 252 180 252h12q0 -22 156 -60q108 -111 108 -192h24q110 444 180 444z
M527 1213q0 -43 -36 -72l12 -12v-12l-12 -48l12 -12h36l36 96zM1055 709q228 -66 228 -144q41 0 72 -156q-36 -336 -228 -336l-48 -12q-168 0 -228 264h12l-12 12v12q42 360 204 360zM1115 529l-24 -168v-72h12q60 108 60 156q-16 84 -48 84z" />
    <glyph glyph-name="ampersand" unicode="&#x26;" horiz-adv-x="859" 
d="M525 1480q75 0 156 -108v-132l-12 -48l12 -12v-12l-12 -60q21 -2 84 -120q-66 -156 -120 -156q0 -17 96 -48l24 -84q0 -103 -264 -180l-108 -156l12 -12h12q90 0 108 84l24 24h48q132 -60 132 -204l24 -156h-12q24 -67 24 -192q0 -108 -120 -108h-12q-76 0 -120 360
l-84 -24q-264 44 -264 192v60q0 68 72 168v12q-35 0 -84 84q0 294 312 444v132l-24 144q56 84 84 84l12 12v12zM399 728h12l156 96q-48 25 -48 60h-12q-35 -6 -108 -156z" />
    <glyph glyph-name="quotesingle" unicode="'" horiz-adv-x="346" 
d="M125 1336v-12l12 12h12q156 -80 156 -156l-12 -12v-12l12 -12q0 -198 -192 -264q-108 0 -108 84q72 134 72 192l-36 96q30 84 84 84z" />
    <glyph glyph-name="parenleft" unicode="(" horiz-adv-x="758" 
d="M252 601q2 277 99.5 530t268.5 442h80q-172 -242 -230 -438q-57 -193 -57 -523v-22q0 -330 57 -522q58 -196 230 -438h-80q-171 189 -268.5 441.5t-99.5 529.5z" />
    <glyph glyph-name="parenright" unicode=")" horiz-adv-x="758" 
d="M138 -370h-80q172 242 230 438q57 192 57 522v22q0 330 -57 523q-58 196 -230 438h80q171 -189 268.5 -442t99.5 -530q-2 -277 -99.5 -529.5t-268.5 -441.5z" />
    <glyph glyph-name="asterisk" unicode="*" horiz-adv-x="1024" 
d="M437 1786h12l12 -12l12 12h12q83 0 108 -216v-48q172 228 276 228q84 -35 84 -108q0 -27 -156 -216v-12q86 0 120 -84q-28 -96 -156 -96l204 -252v-60l-24 -24q-143 0 -336 180l12 -144q0 -133 -84 -180q-132 12 -132 108h-12q-69 -57 -240 -132h-24q-36 12 -36 72
q223 256 300 384h-12l-204 -12q-156 12 -156 132q0 73 240 84v12q-180 95 -180 216l72 60h36q51 0 180 -96v132z" />
    <glyph glyph-name="plus" unicode="+" 
d="M422 1002q149 0 168 -360h96q180 0 180 -60v-24q0 -99 -240 -144l12 -132q-9 -180 -144 -180q-75 0 -96 180l12 12v12l-12 108h-60l-48 -12q-192 21 -192 144v36l48 48h72l144 12l-36 264v24q51 72 96 72z" />
    <glyph glyph-name="comma" unicode="," horiz-adv-x="557" 
d="M259 323v-12l12 12h12q156 -80 156 -156l-12 -12v-12l12 -12q0 -198 -192 -264q-108 0 -108 84q72 134 72 192l-36 96q30 84 84 84z" />
    <glyph glyph-name="hyphen" unicode="-" horiz-adv-x="841" 
d="M568 679q240 -30 240 -120v-12q0 -96 -180 -96l-444 -36q-156 24 -156 144q11 57 96 96l60 -12z" />
    <glyph glyph-name="hyphen" unicode="&#xad;" horiz-adv-x="841" 
d="M568 679q240 -30 240 -120v-12q0 -96 -180 -96l-444 -36q-156 24 -156 144q11 57 96 96l60 -12z" />
    <glyph glyph-name="period" unicode="." horiz-adv-x="557" 
d="M253 279h36q54 0 120 -156l-72 -84h-60q-120 0 -120 144q0 96 96 96z" />
    <glyph glyph-name="slash" unicode="/" horiz-adv-x="569" 
d="M93 -50h-80l541 1484h80z" />
    <glyph glyph-name="zero" unicode="0" horiz-adv-x="859" 
d="M427 1329q246 0 398 -640v-78q0 -267 -257 -516l-167 -78q-217 0 -359 281h13l-39 266q64 671 270 671l51 -31q58 125 90 125zM376 1126q-65 -218 -103 -484v-78q0 -250 77 -250h26q231 152 231 390v16q0 203 -206 390l-13 16h-12z" />
    <glyph glyph-name="one" unicode="1" horiz-adv-x="389" 
d="M142 1289h36q76 0 96 -308v-97l12 -65l-12 -65l12 -48l-12 -65l36 -389h-12l12 -16v-162l-84 -65q-180 56 -180 551l-12 81l12 16l-12 114v243q0 275 108 275z" />
    <glyph glyph-name="two" unicode="2" 
d="M447 1316q204 0 240 -251v-16q0 -256 -168 -585v-34q215 100 336 100q108 0 108 -200q0 -124 -672 -301h-12q-137 0 -192 150v34q0 78 204 368l156 384l-12 17v16l12 17v17q-64 0 -156 -134l-72 -50q-78 0 -120 100l12 17l-12 17v16q0 133 216 285q47 33 132 33z" />
    <glyph glyph-name="three" unicode="3" 
d="M446 1379q264 -41 264 -203v-55l-84 -230h12q264 -95 264 -244l12 -14l-12 -40l12 -14q0 -269 -384 -515q-57 -41 -180 -41q-54 24 -96 95v68l264 190q144 173 144 244l-12 13h-48q-124 -27 -312 -149q-81 0 -156 122q0 99 168 271q75 92 144 258h-12l-216 -149l-72 -14
q-72 85 -84 136q0 86 324 271h60z" />
    <glyph glyph-name="four" unicode="4" horiz-adv-x="873" 
d="M670 1340h12q65 0 108 -216l-12 -12v-12l24 -480v-12l12 -60h-12l12 -12v-12l-12 -12l24 -192l-24 -60l12 -12v-12q0 -216 -168 -216q-60 0 -72 348l-192 -36l-12 12h-12l-36 -12q-196 0 -300 156q0 45 156 336q80 264 192 264l48 12l72 -108v-24q-72 -228 -156 -372
l36 -12l192 24v36l-12 84h12l-12 12v24l12 12l-12 12v132l-12 48l12 48v72l-12 60h12l-12 12q0 180 132 180z" />
    <glyph glyph-name="five" unicode="5" 
d="M812 1370q49 -5 96 -143q0 -86 -120 -129l-12 15h-12q-88 -78 -348 -115q-96 0 -96 -143l-24 -71h36v-14l60 14l72 -14l12 14h12q432 -108 432 -372q-195 -400 -456 -400q-192 14 -192 100v43q44 67 312 214l48 72l-144 57l-12 -14h-12l-12 14h-12l-60 -14v14l-12 -14
h-180l-12 14l-36 -14q-36 0 -120 143v28l84 401l-12 42q50 115 228 115q88 0 492 157z" />
    <glyph glyph-name="six" unicode="6" 
d="M386 1289q80 0 120 -133h-12l12 -14v-13q-168 -397 -168 -720h24q72 307 276 307h24q135 0 204 -120q28 0 72 -187q-120 -386 -456 -386q-264 0 -384 346l-12 147h12l-12 13q113 760 300 760zM578 489l12 -80l-60 -119q98 0 192 159q-12 54 -72 54h-12z" />
    <glyph glyph-name="seven" unicode="7" 
d="M752 1338q144 -38 144 -181v-28h12q-24 -410 -72 -737l12 -14q-22 -348 -132 -348q-64 0 -156 139l84 863v14h-24q-84 0 -408 -84q-134 0 -192 126v41l60 84l12 -14l60 28l36 -14q0 38 480 111z" />
    <glyph glyph-name="eight" unicode="8" 
d="M381 1284h96q35 -44 192 -72q156 -103 156 -288q-96 -120 -120 -120v-36q91 0 180 -240l12 -60q0 -180 -432 -432l-96 -24q-264 36 -264 180v48l12 12l-12 12v12q0 39 168 348h-12q-192 44 -192 168v108q162 334 312 384zM297 852h12q202 56 288 156q-31 72 -132 72h-36
q-40 -16 -132 -228zM573 624q-202 -250 -216 -360q194 56 336 252l12 36q-24 72 -132 72z" />
    <glyph glyph-name="nine" unicode="9" 
d="M506 1347h24q192 -21 192 -194l12 14h12q84 -119 84 -236l-12 -83v-125l-12 -14l12 -14l-12 -166v-14l12 -69h-12l12 -14v-236q0 -143 -108 -166q-156 0 -156 513v83h12l-12 83q-128 -83 -216 -83q-144 25 -144 56l-12 -14h-12q-67 45 -132 166v97q36 50 36 111
q21 0 180 194q138 111 252 111zM290 917l84 -14q204 73 204 194v14l-60 28q-84 0 -228 -222z" />
    <glyph glyph-name="colon" unicode=":" horiz-adv-x="557" 
d="M220 852h48q89 -73 108 -144q0 -45 -84 -108h-12q-156 0 -156 156v36q31 60 96 60zM256 420q68 0 156 -96v-72l-96 -84q-156 29 -156 132v48q51 72 96 72z" />
    <glyph glyph-name="semicolon" unicode=";" horiz-adv-x="557" 
d="M292 865h72l60 -72v-36l-60 -60h-12q-96 0 -96 96q8 72 36 72zM376 553q108 -116 108 -204q-58 -33 -120 -156q-28 0 -72 -60q-77 -48 -144 -48q-55 23 -60 48v12q0 38 144 264q45 144 144 144z" />
    <glyph glyph-name="semicolon" unicode="&#x37e;" horiz-adv-x="557" 
d="M292 865h72l60 -72v-36l-60 -60h-12q-96 0 -96 96q8 72 36 72zM376 553q108 -116 108 -204q-58 -33 -120 -156q-28 0 -72 -60q-77 -48 -144 -48q-55 23 -60 48v12q0 38 144 264q45 144 144 144z" />
    <glyph glyph-name="less" unicode="&#x3c;" 
d="M927 1074l-625 -359l625 -355v-167l-840 481v83l840 484v-167z" />
    <glyph glyph-name="equal" unicode="=" 
d="M788 936q84 -28 84 -48v-84q0 -51 -192 -84v12q-250 -72 -384 -72q-144 8 -144 120v48q85 48 156 48l12 -12h12q282 72 456 72zM608 648l12 -12l60 12h48q51 0 120 -60q0 -156 -288 -156q-240 -16 -240 -36q-183 0 -240 96v60q0 72 528 96z" />
    <glyph glyph-name="greater" unicode="&#x3e;" 
d="M87 1241l840 -484v-83l-840 -481v167l625 355l-625 359v167z" />
    <glyph glyph-name="question" unicode="?" horiz-adv-x="748" 
d="M462 1438q134 0 204 -216q-9 -72 -24 -72l12 -36q-76 -172 -264 -444v-24l120 -132l-12 -12l12 -12v-36q-36 -60 -96 -60q-188 53 -264 180l-36 60v60h-24v12q39 33 144 228q69 74 156 228v24q-192 -144 -228 -144l-12 -12q-132 12 -132 120q0 60 288 264zM378 262
q144 -70 144 -132q0 -120 -96 -120h-36q-86 35 -120 108l-12 12v12q0 76 120 120z" />
    <glyph glyph-name="at" unicode="@" horiz-adv-x="1230" 
d="M752 1063q249 0 384 -360q24 -54 24 -156v-84q0 -328 -192 -432l-108 -24h-36l-24 24l-12 -12h-12q-93 30 -192 168q-97 -84 -168 -84h-12q-125 0 -180 180h-12v-72l24 -84h-12q99 -192 180 -192l12 12h12l48 -24q0 -129 -144 -144q-139 0 -276 276l-24 96q0 196 108 384
q276 528 612 528zM248 391v-12h12q103 254 300 360l60 12v-12l12 12h12q94 0 132 -168l-12 -12v-12l24 -60l-12 -192q47 -72 96 -72h12q78 98 108 276q-31 384 -192 384h-36q-246 0 -504 -456zM440 331v-12h12q90 162 168 204v36h-12q-130 -135 -168 -228zM236 367l-12 -36
v-12h12l12 36v12h-12z" />
    <glyph glyph-name="A" unicode="A" horiz-adv-x="1144" 
d="M436 1505h24q125 0 300 -540q297 -618 336 -756v-12q0 -107 -72 -144q-65 14 -300 468h-12l-396 -132l-84 -360l-96 -24h-60q-29 7 -60 84q240 1023 312 1236q40 36 72 36l-12 60v36zM472 1073l-84 -420l12 -12l204 48h24v12z" />
    <glyph glyph-name="B" unicode="B" horiz-adv-x="1219" 
d="M552 1571h36q300 0 300 -252q0 -48 -168 -276q243 -70 372 -240q65 -104 84 -228q0 -211 -528 -504l-240 -60q-216 0 -216 120q0 60 312 108q183 83 348 240q108 76 108 144q-20 94 -156 192l-132 48q-68 0 -300 -132h-12l24 -240l-12 -180l-96 -84h-48q-36 12 -36 72
v144q0 224 -36 348l12 12l-24 180l12 12l-12 60v36l12 12l-24 48l-12 -12h-48l-48 48v12q0 123 288 312q101 60 240 60zM444 1355v12q-180 -89 -180 -156q65 0 72 -240h24l204 216q108 137 108 192h-12l-84 24z" />
    <glyph glyph-name="C" unicode="C" horiz-adv-x="1234" 
d="M600 1501q225 -39 225 -126q46 -49 84 -225q-22 -112 -56 -112h-42l-56 14l-42 -14q-56 75 -56 224l-29 57h-28q-86 0 -182 -183l-70 -323v-154q0 -379 266 -379h43q152 0 393 295h42q59 0 98 -85v-70q0 -218 -379 -379l-126 -28q-453 0 -562 379l-42 253h14l-14 14
q11 168 28 168l-14 42q76 395 211 506q136 108 294 126z" />
    <glyph glyph-name="D" unicode="D" horiz-adv-x="995" 
d="M281 1464q20 -76 300 -204l240 -192q144 -184 144 -360q0 -404 -576 -684l-108 -12q-72 0 -120 120q40 108 132 108q-96 306 -144 1008q-109 31 -132 84v36q0 84 156 84zM377 1116l48 -396h-12l84 -348h12q216 184 216 288h12q0 265 -348 456h-12z" />
    <glyph glyph-name="E" unicode="E" horiz-adv-x="1099" 
d="M553 1477q240 -15 240 -144l-12 -60l12 -36q-68 -72 -96 -72q-51 0 -72 132q-138 0 -312 -336l-24 -60h12l120 -36q147 36 228 84q108 0 144 -84v-12l-24 -72l12 -12q-223 -108 -384 -300l-84 -192l12 -12h36q230 0 612 252h48q36 -44 36 -84h-12l12 -12v-12
q0 -225 -600 -396l-12 12h-12l-72 -12q-312 62 -312 240q0 135 192 408v12q-148 0 -204 204q91 345 324 516q89 69 192 84z" />
    <glyph glyph-name="F" unicode="F" horiz-adv-x="1079" 
d="M796 1376h144q132 -59 132 -84l-12 -12l12 -12v-12q0 -108 -252 -108q-337 -69 -396 -168l24 -192q265 144 444 144q32 0 60 -60q0 -132 -468 -348l24 -228l-12 -12l12 -48l-12 -72l12 -12v-12q0 -132 -156 -132q-79 0 -96 180h12q-24 61 -24 216l-24 24h-12l-48 -12
q-120 52 -120 132q0 72 168 120v24l-12 84h12q-9 144 -60 144l-12 -12h-12q-108 56 -108 132q0 67 240 180l276 108q175 48 264 48z" />
    <glyph glyph-name="G" unicode="G" horiz-adv-x="1388" 
d="M694 1321h93q64 -16 107 -147q0 -131 -120 -213h-53l-54 67l14 13v13h-27q-96 -54 -280 -573v-133q0 -67 200 -80h13q221 0 414 226v94l-14 66q-321 -146 -440 -146q-80 43 -80 106q0 104 414 267l160 27q240 -38 240 -240l13 -120h-13l13 -14v-53l-13 -13l13 -14v-240
q0 -184 40 -400q0 -120 -147 -133v13l-13 -13h-13q-160 63 -160 467h-14q-204 -134 -453 -134q-440 48 -440 374q83 489 307 760q131 160 213 160v-14z" />
    <glyph glyph-name="H" unicode="H" horiz-adv-x="1171" 
d="M932 1439q101 -81 108 -156l-12 -12l12 -60v-24l-12 -12l12 -12v-228l12 -60h-12l12 -12v-12l-12 -12l12 -12v-96q0 -273 36 -516q-31 -133 -108 -168h-12l-24 24l-12 -12h-24q-68 0 -96 420h12l-12 12v84q-212 -60 -384 -72l-36 12l-12 -12l12 -84v-168l-12 -12l12 -12
v-96q0 -120 -132 -120v12l-12 -12h-12q-87 0 -108 348v24h12l-12 12v204q-88 0 -96 156q20 72 96 72v276q0 112 96 156h12q76 0 144 -96v-300l12 -84l-12 -12l60 -24q360 43 360 84v84l-12 48l12 36l-12 36h12l-12 12v72l12 12l-12 12v12l12 12v12l-12 48q29 204 72 204z
" />
    <glyph glyph-name="I" unicode="I" horiz-adv-x="657" 
d="M183 1401q144 -51 144 -264l24 -228l-12 -60l12 -48h-12l24 -168h-12l12 -12v-192l12 -48q0 -348 -144 -348l-36 -12l-72 48l-24 156l12 48v60l-12 48l12 12l-12 60v348l-12 60h12l-12 12v24l12 12l-12 12v12l-12 348v36q42 84 108 84z" />
    <glyph glyph-name="J" unicode="J" horiz-adv-x="1117" 
d="M740 1426h26q167 -85 167 -283l-13 -13l129 -784q0 -322 -450 -322l-13 13h-13l-13 -13h-13q-527 195 -527 412q36 154 154 154v-13q0 -190 258 -257q94 -52 167 -52h26q90 0 167 65l-90 463h13q-36 120 -78 579q55 51 103 51z" />
    <glyph glyph-name="K" unicode="K" horiz-adv-x="1275" 
d="M154 1536q156 0 156 -612l12 -12q235 100 408 396l60 12q73 -34 108 -120v-36q-44 -156 -240 -336q-132 -62 -132 -84q708 -199 708 -276v-12q0 -76 -120 -120q-74 0 -684 180l-60 24h-24l24 -192l-12 -108v-84q-12 -132 -120 -132l-12 -12q-82 34 -108 84v84l-84 1224
h12l-12 12v12q0 96 120 108z" />
    <glyph glyph-name="L" unicode="L" horiz-adv-x="1198" 
d="M217 1447h85q37 -14 128 -142v-156q0 -110 -43 -213l14 -14v-14q-42 -176 -42 -411v-99l14 -71h57q265 56 298 99l14 -14h14q0 42 255 71h57q85 -32 99 -114q0 -176 -709 -340v14l-14 -14h-14l-71 14l-14 -14h-14q-256 90 -256 269q-25 0 -28 170v71l14 57l-14 14l99 780
z" />
    <glyph glyph-name="M" unicode="M" horiz-adv-x="1271" 
d="M814 1424q120 -78 120 -252q60 -360 264 -984l12 -84v-24q-16 -48 -96 -72q-137 0 -204 336l-36 60l12 12q-120 313 -144 540h-12q-160 -528 -264 -528q-156 34 -156 144h-12v-12l36 -156q-12 -144 -36 -144l24 -144q0 -75 -60 -108q-156 0 -156 192h12q-36 145 -36 252
h12l-12 12l12 36q-36 221 -36 456v60q0 228 60 228h72q156 0 252 -396h12q19 0 96 240l96 192q78 144 168 144z" />
    <glyph glyph-name="N" unicode="N" horiz-adv-x="1076" 
d="M783 1488q146 0 146 -252l40 -332h-14l14 -13v-159l13 -53l-13 -14l13 -132v-385q0 -133 -106 -133h-67q-142 67 -305 332l-212 464h-27l14 -146l-14 -186l14 -172q0 -226 -107 -226h-26q-83 27 -93 67l27 159l13 571l-13 13v13l13 13v14l-13 13v13l13 13l-40 253
q51 39 119 39v14q192 0 545 -797h13v133l13 13l-13 14v278l-13 80l13 13l-40 385h13l-13 13v14l13 13v13l-13 13z" />
    <glyph glyph-name="O" unicode="O" horiz-adv-x="1203" 
d="M469 1465h134q202 0 453 -392l84 -298q0 -379 -386 -675q-149 -78 -235 -78h-100q-265 0 -369 439l-17 235h17l-17 16v32l17 62l-17 16q0 292 218 533q67 63 218 110zM503 1261q-23 -105 -118 -204l17 -15v-16l-50 -282l16 -16v-16l-16 -16v-15l16 -63h-16l16 -16v-15
l-16 -16l67 -267h67q214 87 352 424v31h17q-44 486 -319 486l-17 16h-16z" />
    <glyph glyph-name="P" unicode="P" horiz-adv-x="1120" 
d="M486 1448q266 0 487 -303q40 -68 40 -132v-79q-86 -192 -408 -329l-132 -27l53 -382q-36 -184 -106 -184q-158 0 -158 145v132l-13 66h13q-26 18 -39 276l-40 40v79h26l-26 145h13l-39 224l13 13q-145 26 -145 131v14q122 171 461 171zM354 1184q44 -33 106 -382
q133 25 303 224q0 99 -211 198z" />
    <glyph glyph-name="Q" unicode="Q" horiz-adv-x="1180" 
d="M446 1433v-14l13 14h14l13 -14l14 14h41q299 -110 434 -448l41 -204v-41l-68 -312q174 -153 204 -218v-13l-13 -14l13 -14v-13l-54 -68l-14 14l-13 -14h-14q-106 41 -245 149q-199 -217 -339 -217h-136q-272 99 -272 299l-27 95l14 14v13l-14 14q84 978 408 978zM310 346
q9 -68 40 -68h41q95 0 218 150q-231 220 -231 299q64 81 108 81v-14l14 14h27q72 0 204 -149h14l27 122q0 291 -231 448q-231 -198 -231 -883z" />
    <glyph glyph-name="R" unicode="R" horiz-adv-x="1283" 
d="M547 1294q312 -74 312 -300q0 -217 -432 -456l792 -120h12q0 -29 36 -60v-12q0 -103 -96 -132q-660 75 -660 96l-12 -12l-144 24v-36l12 -60h-12l12 -12v-96q0 -108 -84 -108q-150 0 -168 192h12l-12 12v24l12 12l-12 12v108l-60 132v36l60 84l-12 12v12l12 48l-12 48v12
l12 12l-12 12v36l12 12l-12 12v12l12 60q-96 9 -96 84h12l-12 12v12q96 111 96 168q297 108 432 108zM343 1006v-72l12 -48l-12 -12v-12l12 -108h-12l12 -36q276 194 276 288q0 69 -96 84l-36 -12v12q-156 -48 -156 -84z" />
    <glyph glyph-name="S" unicode="S" horiz-adv-x="1085" 
d="M469 1331q343 -43 343 -289v-55q0 -72 -96 -124q-96 19 -96 55l14 124q-11 47 -83 82h-41q-151 -31 -151 -151v-13q0 -165 384 -303q234 -183 234 -233v-28q0 -244 -591 -302h-137q-156 0 -220 137q0 124 137 124l42 14l55 -28l151 14h55q66 49 165 69v13l-275 138
q-261 131 -261 412v55q86 191 206 234z" />
    <glyph glyph-name="T" unicode="T" horiz-adv-x="1350" 
d="M1003 1353l60 -12l12 12h12q156 -36 156 -84v-48q0 -71 -276 -120v12l-264 -60v-12l48 -360h-12l84 -612q-73 -60 -108 -60q-120 65 -120 84q-60 157 -108 708h12l-36 228h-12l-96 -12l-204 12q-132 89 -132 168l60 96l60 -12h24v12l60 -12h36q199 0 744 72z" />
    <glyph glyph-name="U" unicode="U" horiz-adv-x="1094" 
d="M737 1393q265 0 307 -675q-46 -294 -200 -522q-184 -169 -276 -169h-108q-205 0 -337 338q-46 209 -77 660q0 307 138 307h46q138 -98 138 -323v-184l16 -77h-16l31 -153h-15l61 -261h15q213 0 307 491v92q0 111 -92 369v15q0 92 62 92z" />
    <glyph glyph-name="V" unicode="V" horiz-adv-x="1176" 
d="M1022 1373l104 -119v-30l-15 -15l15 -44q-119 -924 -179 -1103q-20 -30 -253 -45q-230 179 -373 507l-238 641l-15 14v15l15 15l-30 75q54 74 89 74q140 0 194 -119q44 -5 164 -402l194 -418h15q72 815 193 895q0 59 120 59z" />
    <glyph glyph-name="W" unicode="W" horiz-adv-x="1366" 
d="M105 1442q196 0 259 -531q28 0 28 -57l-14 -15l14 -14h15v29h14l-14 14v14q53 101 143 101q208 -132 287 -373l144 -230h28l29 187v143l15 15l-15 43l15 14v14l-15 15l15 71l-15 101h15l-15 14v15l15 14l-15 14v72l15 14l-15 15v86q0 72 72 129h43q76 0 143 -86v-101
l-14 -14l14 -14v-15l-14 -14l14 -14v-216l15 -71h-15l15 -15v-28l-15 -15l15 -14l-15 -72l15 -43h-15l15 -14v-29l-15 -14l15 -15q-43 -545 -172 -545h-72v14l-14 -14h-15q-280 161 -416 488h-29v-43q-80 -388 -143 -388h-15l-14 15l-14 -15h-58q-143 76 -143 273l-14 14v15
h14q-101 419 -158 990z" />
    <glyph glyph-name="X" unicode="X" horiz-adv-x="959" 
d="M597 1438q105 0 141 -90l-39 -153l13 -13q0 -42 -166 -422l-13 -64q178 -235 384 -371v-26q0 -115 -103 -115h-64q-112 44 -319 256h-13q0 -47 -90 -179q-73 -243 -166 -243h-38q-90 41 -90 115v26q23 106 230 537q-230 358 -230 397v51l64 64l13 -13h13l12 13h13
q62 0 218 -205h25q128 435 205 435z" />
    <glyph glyph-name="Y" unicode="Y" horiz-adv-x="864" 
d="M726 1634q84 -52 84 -168q-15 -156 -36 -156l12 -12l-36 -204l12 -12q-14 -108 -36 -108l12 -12v-36l-12 -12l12 -12v-12l-24 -48l12 -12v-12l-12 -12l12 -12q-96 -780 -216 -780h-36q-84 42 -84 192l48 324q-91 0 -252 216q-168 382 -168 540l72 60h36q138 0 240 -480
q86 -96 108 -96q84 852 192 852z" />
    <glyph glyph-name="Z" unicode="Z" horiz-adv-x="1035" 
d="M772 1393h53q66 0 106 -173l-359 -665q-109 -186 -146 -186l27 -27q276 94 438 94q107 -46 107 -147q0 -107 -279 -146q-281 -93 -493 -133q-92 0 -172 106l13 14l-27 66q77 77 319 519q107 141 200 385h-13l-333 -186h-106v27l-14 -13h-13q-53 13 -53 146
q461 319 745 319z" />
    <glyph glyph-name="underscore" unicode="_" horiz-adv-x="1024" 
d="M655 96q240 -30 240 -120v-12q0 -96 -180 -96l-444 -36q-156 24 -156 144q11 57 96 96l60 -12z" />
    <glyph glyph-name="a" unicode="a" horiz-adv-x="922" 
d="M425 822q72 0 216 -156q61 -2 132 -180q84 -326 156 -432l24 -72l-96 -72q-180 0 -300 396h-12q-46 -133 -216 -264l-84 -24q-208 0 -228 264q87 540 408 540zM233 294l12 -36q86 0 228 324v36l-24 36q-216 -144 -216 -360z" />
    <glyph glyph-name="b" unicode="b" horiz-adv-x="855" 
d="M74 1407h72q132 -82 132 -396q15 0 36 -288h12q64 52 180 84q230 0 312 -228l12 -48q0 -335 -372 -516h-36l-156 48l-36 -12l-12 12q-108 33 -108 168l-12 84h12l-12 12v12l12 108q-24 0 -84 828l-12 12q27 120 60 120zM362 375l12 -12v-12q0 -85 -24 -132h24
q134 57 180 180l36 132q0 60 -48 72q-76 0 -180 -228z" />
    <glyph glyph-name="c" unicode="c" horiz-adv-x="728" 
d="M332 955h24q204 -48 204 -204v-96q0 -63 -60 -96h-72q-25 5 -48 60l12 156h-12q-120 -107 -120 -516h48q58 0 252 156l72 12l48 -48l-24 -24l24 -72q-108 -192 -336 -264h-12q-312 0 -312 360h12l-12 12v12q48 306 168 468q99 84 144 84z" />
    <glyph glyph-name="d" unicode="d" horiz-adv-x="846" 
d="M541 1242h60q120 -51 120 -336l72 -780v-24q0 -50 -72 -120q-144 17 -144 132l-132 -60q-79 -48 -180 -48q-216 46 -216 204q8 104 144 372l-12 12q126 120 204 120h84l12 12h12l-12 12v12l-12 372v36zM433 522q-125 -137 -168 -288h24q104 0 228 156q-7 120 -24 120z
" />
    <glyph glyph-name="e" unicode="e" horiz-adv-x="800" 
d="M580 887q168 -93 180 -192q0 -116 -204 -348q-121 -84 -192 -84h-36l-60 12v-24l192 -36l168 48q72 -16 72 -36q-67 -216 -288 -216h-72q-133 0 -288 168l-24 156q0 196 300 480q162 72 252 72zM328 503h12q80 28 156 156h-12q-90 -36 -156 -156z" />
    <glyph glyph-name="f" unicode="f" horiz-adv-x="1076" 
d="M580 1261q432 -108 432 -312v-48l-48 -60q-96 21 -96 96q-160 108 -228 108h-48l-12 -156l36 -288h84q300 0 300 -60v-72q-57 -108 -312 -108h-36l24 -204q-12 -53 -72 -132v-12h-24q-132 0 -132 108l12 12l-36 216l-120 -12h-108q-113 0 -180 120l12 12l-12 12v12
q41 96 108 96l48 -12l204 24l-24 252v168q0 175 216 240h12z" />
    <glyph glyph-name="g" unicode="g" horiz-adv-x="899" 
d="M465 902h60q146 -112 228 -336q108 -429 108 -624q-80 -348 -288 -348h-24q-312 59 -312 252l12 60q207 -72 276 -72q84 0 84 156t-60 444h-12q-148 -168 -300 -168q-192 69 -192 180l-12 12h-12q164 444 444 444zM253 500q117 69 192 180v24h-12q-180 -107 -180 -204z
" />
    <glyph glyph-name="h" unicode="h" horiz-adv-x="931" 
d="M167 1249q120 -55 120 -156v-36l-12 -12l24 -132l-12 -48v-36l12 -84h-12l12 -12v-132q132 156 240 156q104 -16 216 -180q144 -397 144 -480l-96 -72q-169 0 -240 468l-12 12q0 36 -24 36h-12q-81 0 -204 -360q0 -108 -72 -168h-48q-110 0 -144 156l12 60v36l-12 684
q0 300 120 300z" />
    <glyph glyph-name="i" unicode="i" horiz-adv-x="514" 
d="M116 1225h36q75 -52 96 -132q0 -56 -132 -96q-86 59 -96 96v72q31 60 96 60zM164 889h12q152 0 180 -324h-12l12 -36l12 -372q0 -92 -96 -144v12l-36 -12q-79 0 -132 144l12 12v12l-12 12l12 60l-12 84h12l-12 12v180q0 140 -24 192q0 125 84 168z" />
    <glyph glyph-name="j" unicode="j" horiz-adv-x="787" 
d="M368 951h36q108 0 132 -168q-55 -72 -84 -72q-123 0 -168 132q0 66 84 108zM519 540q132 -97 240 -600l-12 -12v-12l12 -36q0 -120 -72 -204q0 -55 -216 -84v12l-12 -12q-217 0 -420 312l-24 108q0 216 60 216q0 36 24 36h12q0 -48 24 -48l-24 -132q27 -100 120 -156
l168 -72h84l24 24q-48 325 -120 528v12q0 120 132 120z" />
    <glyph glyph-name="k" unicode="k" horiz-adv-x="1026" 
d="M81 1326q123 0 168 -192l-12 -36q27 -50 48 -372h36l252 180q96 -53 96 -120v-48q-104 -155 -156 -156v-24q408 -124 408 -156l24 -48v-24q-16 -108 -132 -108q-329 84 -444 144h-36l12 -60v-120q0 -133 -84 -180h-12q-156 27 -156 156v24l-84 1008q12 60 72 132z" />
    <glyph glyph-name="l" unicode="l" horiz-adv-x="522" 
d="M182 1123v-12l12 12h24l84 -156v-24l-12 -12l12 -36l12 -264h-12l12 -36q0 -288 -24 -444l12 -36h-12l12 -12v-12l-84 -84h-12q-156 50 -156 240l12 456l-12 12v12l12 48l-12 84h12l-12 12l12 120v60q42 72 120 72z" />
    <glyph glyph-name="m" unicode="m" horiz-adv-x="1185" 
d="M144 1083h24q84 -47 84 -168q62 60 108 60h48q102 0 168 -216h12q68 192 168 192h12q174 0 276 -468q84 -147 84 -240q-48 -96 -144 -96h-12q-108 0 -216 468h-12l-96 -372q-27 -39 -108 -60q-132 0 -132 288l-48 252h-12v-24h-12l12 -12q-36 -142 -36 -324v-36l12 -228
q0 -53 -132 -84q-120 0 -120 348q-17 0 -36 372h12l-12 12v48l12 12l-12 12v48l12 72l-12 36q36 108 108 108z" />
    <glyph glyph-name="n" unicode="n" horiz-adv-x="1022" 
d="M154 1016q63 -34 108 -240v-72h12q119 240 276 240h12q188 0 276 -432q24 -23 120 -420q-45 -96 -108 -96h-72q-86 16 -252 696l-12 12v12q-110 -88 -180 -360l-12 -108l12 -132q-32 -96 -60 -96l-36 24l-36 -36q-118 0 -156 408l-12 168h12l-12 12v12l12 12l-24 132h12
l-12 12v84l12 12l-12 36q0 120 132 120z" />
    <glyph glyph-name="o" unicode="o" horiz-adv-x="909" 
d="M438 885v-12l12 12h12q261 0 372 -288l36 -72q-187 -504 -552 -504q-96 0 -204 120q-72 137 -72 288q0 370 228 420zM282 525l12 -12l-12 -60l12 -48h-12q31 -144 60 -144h24q121 0 264 264v24h12q-50 132 -156 132h-108q-84 0 -84 -156h-12z" />
    <glyph glyph-name="p" unicode="p" horiz-adv-x="827" 
d="M175 751v-12l12 12q96 -8 96 -24l12 12h12q230 0 420 -132l60 -108q-116 -276 -240 -276q0 -16 -96 -36l-12 12l-60 -12h-12l-60 12l48 -468q-31 -109 -84 -132h-84q-120 39 -120 468l-48 348h12q-24 63 -24 252q52 84 168 84zM271 571v-12l24 -180q165 0 240 144
q-119 48 -264 48z" />
    <glyph glyph-name="q" unicode="q" horiz-adv-x="841" 
d="M446 676q94 0 180 -168q114 0 132 -504l36 -324v-24q-45 -84 -108 -84h-72q-79 0 -108 360l-24 120h12l-12 36q-103 -84 -252 -84h-60l-36 24l-12 -12q-108 97 -108 156q0 274 288 480zM362 448q-120 -170 -120 -216l12 -12h12q129 48 180 156l-12 72h-72z" />
    <glyph glyph-name="r" unicode="r" horiz-adv-x="895" 
d="M81 874h60q93 0 132 -144h24q121 120 372 120q204 -45 204 -168q-32 -4 -48 -60q-36 0 -36 -24h-48l-144 36q-264 -58 -264 -204l-12 -96l24 -240q-72 -84 -132 -84q-71 0 -120 72v24l12 12l-24 108h12q-60 334 -60 588q23 55 48 60z" />
    <glyph glyph-name="s" unicode="s" horiz-adv-x="827" 
d="M458 1010h72q166 -60 204 -180q-17 -144 -144 -144q-23 108 -108 108q-99 0 -204 -156q516 -149 516 -264l12 -132q-156 -228 -408 -228q-228 48 -228 144l12 12l-12 12v24l36 36l120 -12h24q190 12 216 72l-384 120q-128 95 -144 144l12 48l-12 36q124 360 420 360z" />
    <glyph glyph-name="t" unicode="t" horiz-adv-x="886" 
d="M367 1174q123 0 144 -168l-12 -12l24 -24v-132l-12 -72l12 -36h-12l12 -12v-12l-12 -12v-12l240 24q132 -20 132 -108v-24q0 -67 -384 -132q12 -195 48 -348q-63 -84 -84 -84h-84q-108 0 -108 420h-72l-12 -12h-12l-24 24l-12 -12h-12q-88 0 -108 144q48 96 144 96
l12 -12h12l12 12l60 -12h24v48l12 228l-12 120q24 89 84 120z" />
    <glyph glyph-name="u" unicode="u" horiz-adv-x="900" 
d="M644 847q92 -28 120 -108l-12 -144v-36q0 -255 72 -372v-48q-29 -84 -144 -84l-12 12v12l-12 -12h-12q-105 83 -108 180q-130 -240 -288 -240q-204 0 -204 432v84q9 288 84 288h96q0 -28 60 -60l12 -120v-324h12q102 183 228 504q46 36 108 36z" />
    <glyph glyph-name="v" unicode="v" horiz-adv-x="823" 
d="M682 874h12q26 -2 72 -120l-12 -48l12 -36q-194 -636 -264 -636q0 -24 -108 -24q-133 0 -336 564q-48 45 -48 144q39 84 96 84q156 0 288 -396h24q60 246 180 456z" />
    <glyph glyph-name="w" unicode="w" horiz-adv-x="1013" 
d="M75 984h84q96 0 132 -384h12q36 132 120 132h12q155 0 192 -216l60 -108q0 528 72 528h108q60 -80 60 -180l-12 -36l24 -120h-12l12 -12v-72q0 -379 -168 -492l-48 -12q-113 0 -264 288h-24l-60 -204l12 -12l-12 -12q-24 -48 -120 -60q-123 0 -156 300l-60 372h12
l-36 156l12 12v12l-12 72z" />
    <glyph glyph-name="x" unicode="x" horiz-adv-x="809" 
d="M651 1085h36q22 0 72 -84v-36l-228 -576h12q156 -159 192 -228v-12q-60 -72 -120 -72q-63 0 -192 96q-94 -168 -168 -168q-108 9 -108 96q36 111 120 252q-84 82 -252 360v24l12 12l-12 12v12q35 84 108 84h12q111 0 228 -240h24q100 321 264 468z" />
    <glyph glyph-name="y" unicode="y" horiz-adv-x="909" 
d="M540 925h36q168 0 168 -432q84 -283 120 -612q-71 -288 -288 -288l-12 12v12l-12 -12h-60q-192 69 -192 180l12 12l144 -24q144 30 144 132q0 100 -72 432h-12q-128 -300 -276 -300h-24q-204 0 -204 420l12 12v12l-12 12l36 288l-12 12v12q30 52 84 72q92 0 144 -96
l-12 -12v-12l24 -24v-24l-12 -12l12 -36q0 -156 -24 -156l12 -12v-144q98 110 204 456q0 86 72 120z" />
    <glyph glyph-name="z" unicode="z" horiz-adv-x="832" 
d="M659 986q84 -67 84 -136q-238 -473 -326 -588q179 42 315 42h11q84 -46 84 -126l-11 -11q0 -63 -115 -63l-158 -31v10q-205 -73 -325 -73q-137 14 -137 94q0 66 189 315l200 368q-307 -105 -357 -105q-98 0 -105 115q155 124 367 158z" />
    <glyph glyph-name="braceleft" unicode="{" 
d="M240 698q172 5 223 71t51 133v468q0 74 77 141.5t185 67.5h108v-50h-90q-61 0 -107 -33.5t-47 -91.5v-500q0 -83 -60.5 -158.5t-142.5 -76.5v-2q82 -1 143 -76t61 -158l-1 -500q1 -58 47 -91.5t107 -33.5h90v-50h-108q-108 0 -184.5 67.5t-77.5 141.5v468q0 66 -51 132
t-223 71v60z" />
    <glyph glyph-name="braceright" unicode="}" 
d="M774 638q-172 -5 -223 -71t-51 -132v-468q-1 -74 -77.5 -141.5t-184.5 -67.5h-108v50h90q61 0 107 33.5t47 91.5l-1 500q0 83 61 158t144 76v2q-83 1 -143.5 76.5t-60.5 158.5v500q-1 58 -47 91.5t-107 33.5h-90v50h108q108 0 185 -67.5t77 -141.5v-468q0 -67 51 -133
t223 -71v-60z" />
    <glyph glyph-name="asciitilde" unicode="~" 
d="M923 878v-156q-63 -72 -122 -97.5t-116 -25.5q-60 0 -177.5 48.5t-176.5 48.5q-51 0 -107.5 -28t-129.5 -112v156q64 73 123 99t114 26q64 0 181.5 -49.5t172.5 -49.5q52 0 108.5 28t129.5 112z" />
    <glyph glyph-name="multiply" unicode="&#xd7;" 
d="M773 1212h36q22 0 72 -84v-36l-228 -576h12q156 -159 192 -228v-12q-60 -72 -120 -72q-63 0 -192 96q-94 -168 -168 -168q-108 9 -108 96q36 111 120 252q-84 82 -252 360v24l12 12l-12 12v12q35 84 108 84h12q111 0 228 -240h24q100 321 264 468z" />
    <glyph glyph-name="divide" unicode="&#xf7;" 
d="M671 801q240 -30 240 -120v-12q0 -96 -180 -96l-444 -36q-156 24 -156 144q11 57 96 96l60 -12zM497 1079h36q54 0 120 -156l-72 -84h-60q-120 0 -120 144q0 96 96 96zM511 501h36q54 0 120 -156l-72 -84h-60q-120 0 -120 144q0 96 96 96z" />
    <glyph glyph-name="circumflex" unicode="&#x2c6;" horiz-adv-x="1024" 
d="M463 1441q156 -39 156 -120q263 -501 276 -660l-60 -36h-96q-67 9 -276 540h-12l-156 -420l-60 -12h-12l-12 12l-12 -12h-24q-72 42 -72 108q0 46 72 156q170 444 276 444h12z" />
    <glyph glyph-name="minus" unicode="&#x2212;" 
d="M668 733q240 -30 240 -120v-12q0 -96 -180 -96l-444 -36q-156 24 -156 144q11 57 96 96l60 -12z" />
  </font>
</defs>
</svg>
